<svg viewBox="0 0 14.3999 16" xmlns="http://www.w3.org/2000/svg" xmlns:xlink="http://www.w3.org/1999/xlink" width="14.399902" height="16.000008" fill="none" customFrame="#000000">
	<path id="形状" d="M5 0.6C5 0.93137 5.26863 1.2 5.6 1.2L8.79999 1.2C9.13136 1.2 9.39999 0.93137 9.39999 0.6C9.39999 0.268629 9.13136 0 8.79999 0L5.6 0C5.26863 0 5 0.268629 5 0.6ZM1.40001 3.2L0.6 3.2C0.268629 3.2 0 2.93138 0 2.60001C0 2.26863 0.268629 2.00001 0.6 2.00001L13.8 2.00001C14.1314 2.00001 14.4 2.26863 14.4 2.60001C14.4 2.93138 14.1314 3.2 13.8 3.2L2.60001 3.2L2.60001 13.8C2.6 14.0652 2.70535 14.3196 2.89289 14.5071C3.08043 14.6946 3.33478 14.8 3.6 14.8L10.8 14.8C11.0652 14.8 11.3196 14.6946 11.5071 14.5071C11.6946 14.3196 11.8 14.0652 11.8 13.8L11.8 5C11.8 4.66863 12.0686 4.4 12.4 4.4C12.7314 4.4 13 4.66863 13 5L13 13.8C13 15.015 12.015 16 10.8 16L3.6 16C2.385 16 1.40001 15.015 1.40001 13.8L1.40001 3.2ZM5 6.6C5 6.26863 5.26863 6 5.6 6C5.93137 6 6.2 6.26863 6.2 6.6L6.2 11.4C6.2 11.7314 5.93137 12 5.6 12C5.26863 12 5 11.7314 5 11.4L5 6.6ZM8.79999 6C8.46862 6 8.19999 6.26863 8.19999 6.6L8.19999 11.4C8.19999 11.7314 8.46862 12 8.79999 12C9.13136 12 9.39999 11.7314 9.39999 11.4L9.39999 6.6C9.39999 6.26863 9.13136 6 8.79999 6Z" fill="rgb(245,63,63)" fill-rule="evenodd" />
</svg>
