<svg viewBox="0 0 32 32" xmlns="http://www.w3.org/2000/svg" xmlns:xlink="http://www.w3.org/1999/xlink" width="32.000000" height="32.000000" fill="none" customFrame="#000000">
	<g id="组合 266">
		<rect id="矩形 19922" width="32.000000" height="32.000000" x="0.000000" y="0.000000" rx="4.000000" opacity="0.099999994" fill="rgb(255,255,255)" />
		<g id="组合 34">
			<g id="组合 4">
				<rect id="矩形 19720" width="24.000000" height="24.000000" x="4.000000" y="4.000000" rx="2.000000" opacity="0" fill="rgb(196,196,196)" />
				<path id="矢量 62" d="M22.9147 8.19272C22.9925 8.11213 23.0904 8.0537 23.1983 8.02345C23.3062 7.99319 23.4202 7.9922 23.5286 8.02057C23.637 8.04895 23.7359 8.10566 23.8151 8.1849C23.8943 8.26413 23.9511 8.36302 23.9794 8.47142C24.0078 8.57982 24.0068 8.69382 23.9766 8.80171C23.9463 8.90961 23.8879 9.0075 23.8073 9.08534L14.8805 18.0124C14.7862 18.1067 14.6645 18.1687 14.5328 18.1895C14.4011 18.2104 14.2662 18.189 14.1474 18.1285C14.0286 18.068 13.932 17.9714 13.8715 17.8526C13.811 17.7338 13.7896 17.5989 13.8105 17.4672C13.8313 17.3355 13.8933 17.2138 13.9876 17.1196L22.9147 8.19293L22.9147 8.19272ZM22.7297 14.7413C22.7297 14.608 22.7719 14.4781 22.8503 14.3703C22.9286 14.2624 23.0391 14.1822 23.1659 14.141C23.2927 14.0998 23.4293 14.0998 23.556 14.141C23.6828 14.1822 23.7933 14.2624 23.8717 14.3703C23.95 14.4781 23.9922 14.608 23.9922 14.7413L23.9922 21.6853C23.9922 22.9637 22.9559 24 21.6776 24L10.3147 24C9.03634 24 8 22.9637 8 21.6853L8 10.3224C8 9.0441 9.03634 8.00776 10.3147 8.00776L17.0482 8.00776C17.1815 8.00783 17.3113 8.05007 17.4191 8.12843C17.5269 8.2068 17.6072 8.31727 17.6483 8.44402C17.6895 8.57077 17.6895 8.7073 17.6483 8.83405C17.6072 8.9608 17.5269 9.07127 17.4191 9.14964C17.3113 9.228 17.1815 9.27024 17.0482 9.27031L10.3147 9.27031C10.13 9.27031 9.94855 9.31892 9.78861 9.41126C9.62866 9.50361 9.49585 9.63642 9.4035 9.79637C9.31116 9.95631 9.26255 10.1377 9.26255 10.3224L9.26255 21.6853C9.26255 21.87 9.31116 22.0515 9.4035 22.2114C9.49585 22.3713 9.62866 22.5042 9.78861 22.5965C9.94855 22.6888 10.13 22.7375 10.3147 22.7375L21.6776 22.7375C21.8623 22.7375 22.0437 22.6888 22.2036 22.5965C22.3636 22.5042 22.4964 22.3713 22.5887 22.2114C22.6811 22.0515 22.7297 21.87 22.7297 21.6853L22.7297 14.7413Z" fill="rgb(255,255,255)" fill-rule="nonzero" />
			</g>
		</g>
	</g>
</svg>
