<svg viewBox="0 0 20 20" xmlns="http://www.w3.org/2000/svg" xmlns:xlink="http://www.w3.org/1999/xlink" width="20.000000" height="20.000000" fill="none" customFrame="#000000">
	<g id="组合 34">
		<g id="组合 4">
			<rect id="矩形 19720" width="20.000000" height="20.000000" x="0.000000" y="0.000000" rx="1.666667" opacity="0" fill="rgb(196,196,196)" />
			<g id="组合 2007">
				<path id="形状" d="M5.875 6.375L5.875 4C5.875 3.103 6.603 2.375 7.5 2.375L12.5 2.375C13.397 2.375 14.125 3.103 14.125 4L14.125 6.375L16 6.375C16.897 6.375 17.625 7.103 17.625 8L17.625 16C17.625 16.897 16.897 17.625 16 17.625L4 17.625C3.56902 17.625 3.1557 17.4538 2.85095 17.149C2.5462 16.8443 2.375 16.431 2.375 16L2.375 8C2.375 7.103 3.103 6.375 4 6.375L5.875 6.375ZM12.875 6.375L7.125 6.375L7.125 4C7.125 3.79289 7.29289 3.625 7.5 3.625L12.5 3.625C12.7071 3.625 12.875 3.79289 12.875 4L12.875 6.375ZM4 7.625C3.79289 7.625 3.625 7.79289 3.625 8L3.625 16C3.625 16.207 3.793 16.375 4 16.375L16 16.375C16.2071 16.375 16.375 16.2071 16.375 16L16.375 8C16.375 7.79289 16.2071 7.625 16 7.625L4 7.625Z" fill="rgb(68,68,68)" fill-rule="evenodd" />
				<path id="路径" d="M7 12.625C6.65482 12.625 6.375 12.3452 6.375 12C6.375 11.6548 6.65482 11.375 7 11.375L13 11.375C13.3452 11.375 13.625 11.6548 13.625 12C13.625 12.3452 13.3452 12.625 13 12.625L7 12.625Z" fill="rgb(0,124,255)" fill-rule="evenodd" />
			</g>
		</g>
	</g>
</svg>
