<svg viewBox="0 0 16 16" xmlns="http://www.w3.org/2000/svg" xmlns:xlink="http://www.w3.org/1999/xlink" width="16.000000" height="16.000000" fill="none" customFrame="#000000">
	<g id="组合 31">
		<g id="组合 4">
			<rect id="矩形 19720" width="16.000000" height="16.000000" x="0.000000" y="0.000000" rx="1.000000" opacity="0" fill="rgb(196,196,196)" />
			<g id="组合 84">
				<path id="path" d="M13.5552 10.2649L13.5552 11.4997C13.5552 12.2671 12.9346 12.8876 12.167 12.8876L3.77644 12.8876C3.00884 12.8876 2.38822 12.2671 2.38822 11.4997L2.38822 10.2649C2.38822 9.88116 2.07791 9.57092 1.69411 9.57092C1.31031 9.57092 1 9.88116 1 10.2649L1 11.4793C1 13.0182 2.24736 14.2653 3.78665 14.2653L12.1568 14.2653C13.6961 14.2653 14.9434 13.0182 14.9434 11.4793L14.9434 10.2649C14.9434 9.88116 14.6331 9.57092 14.2493 9.57092C13.8655 9.57092 13.5552 9.88116 13.5552 10.2649Z" fill="rgb(51,124,252)" fill-rule="nonzero" />
				<path id="path" d="M4.93992 5.70346C5.21552 5.979 5.66465 5.979 5.94026 5.70346L7.26723 4.37679L7.26723 9.50999C7.26723 9.89371 7.57754 10.2039 7.96134 10.2039C8.34514 10.2039 8.65545 9.89371 8.65545 9.50999L8.65545 4.37679L9.98243 5.70346C10.258 5.979 10.7072 5.979 10.9828 5.70346C11.2584 5.42792 11.2584 4.97889 10.9828 4.70335L8.50234 2.22349C8.20428 1.9255 7.72045 1.9255 7.42239 2.22349L4.93992 4.70335C4.66228 4.98093 4.66228 5.42792 4.93992 5.70346Z" fill="rgb(51,124,252)" fill-rule="nonzero" />
			</g>
		</g>
	</g>
</svg>
