<svg viewBox="0 0 20 20" xmlns="http://www.w3.org/2000/svg" xmlns:xlink="http://www.w3.org/1999/xlink" width="20.000000" height="20.000000" fill="none" customFrame="#000000">
	<g id="组合 4">
		<rect id="矩形 19720" width="20.000000" height="20.000000" x="0.000000" y="0.000000" rx="1.666667" opacity="0" fill="rgb(196,196,196)" />
		<g id="组合 2006">
			<path id="path" d="M10 10C10.1433 10 10.2862 9.99298 10.4288 9.97893C10.5714 9.96489 10.713 9.94389 10.8535 9.91593C10.9941 9.88798 11.1329 9.85321 11.27 9.81161C11.4071 9.77002 11.5419 9.7218 11.6742 9.66697C11.8066 9.61214 11.936 9.55095 12.0624 9.4834C12.1887 9.41586 12.3115 9.34228 12.4306 9.26268C12.5498 9.18307 12.6647 9.09782 12.7755 9.00692C12.8862 8.91602 12.9923 8.81991 13.0936 8.71859C13.1949 8.61727 13.291 8.51123 13.3819 8.40047C13.4728 8.28971 13.5581 8.17476 13.6377 8.05562C13.7173 7.93648 13.7909 7.81373 13.8584 7.68736C13.926 7.56099 13.9871 7.43162 14.042 7.29924C14.0968 7.16686 14.145 7.03211 14.1866 6.895C14.2282 6.75788 14.263 6.61905 14.2909 6.47852C14.3189 6.33799 14.3399 6.19642 14.3539 6.05382C14.368 5.91123 14.375 5.76829 14.375 5.625C14.375 5.48171 14.368 5.33877 14.3539 5.19618C14.3399 5.05358 14.3189 4.91201 14.2909 4.77148C14.263 4.63095 14.2282 4.49212 14.1866 4.355C14.145 4.21789 14.0968 4.08314 14.042 3.95076C13.9871 3.81838 13.926 3.68901 13.8584 3.56264C13.7909 3.43627 13.7173 3.31352 13.6377 3.19438C13.5581 3.07524 13.4728 2.96029 13.3819 2.84953C13.291 2.73877 13.1949 2.63273 13.0936 2.53141C12.9923 2.43009 12.8862 2.33398 12.7755 2.24308C12.6647 2.15218 12.5498 2.06693 12.4306 1.98732C12.3115 1.90771 12.1887 1.83414 12.0624 1.76659C11.936 1.69905 11.8066 1.63786 11.6742 1.58303C11.5419 1.52819 11.4071 1.47998 11.27 1.43839C11.1329 1.39679 10.9941 1.36202 10.8535 1.33406C10.713 1.30611 10.5714 1.28511 10.4288 1.27107C10.2862 1.25702 10.1433 1.25 10 1.25C9.85671 1.25 9.71377 1.25702 9.57117 1.27107C9.42858 1.28511 9.28701 1.30611 9.14648 1.33406C9.00595 1.36202 8.86712 1.39679 8.73001 1.43839C8.59289 1.47998 8.45814 1.52819 8.32576 1.58303C8.19338 1.63786 8.06401 1.69905 7.93764 1.76659C7.81127 1.83414 7.68852 1.90771 7.56938 1.98732C7.45024 2.06693 7.33529 2.15218 7.22453 2.24308C7.11377 2.33398 7.00773 2.43009 6.90641 2.53141C6.80509 2.63273 6.70898 2.73877 6.61808 2.84953C6.52718 2.96029 6.44193 3.07524 6.36232 3.19438C6.28271 3.31352 6.20914 3.43627 6.14159 3.56264C6.07405 3.68901 6.01286 3.81838 5.95803 3.95076C5.90319 4.08314 5.85498 4.21789 5.81339 4.355C5.77179 4.49212 5.73702 4.63095 5.70906 4.77148C5.68111 4.91201 5.66011 5.05358 5.64607 5.19618C5.63202 5.33877 5.625 5.48171 5.625 5.625C5.625 5.76829 5.63202 5.91123 5.64607 6.05382C5.66011 6.19642 5.68111 6.33799 5.70906 6.47852C5.73702 6.61905 5.77179 6.75788 5.81339 6.895C5.85498 7.03211 5.90319 7.16686 5.95803 7.29924C6.01286 7.43162 6.07405 7.56099 6.14159 7.68736C6.20914 7.81373 6.28271 7.93648 6.36232 8.05562C6.44193 8.17476 6.52718 8.28971 6.61808 8.40047C6.70898 8.51123 6.80509 8.61727 6.90641 8.71859C7.00773 8.81991 7.11377 8.91602 7.22453 9.00692C7.33529 9.09782 7.45024 9.18307 7.56938 9.26268C7.68852 9.34228 7.81127 9.41586 7.93764 9.48341C8.06401 9.55095 8.19338 9.61214 8.32576 9.66697C8.45814 9.7218 8.59289 9.77002 8.73001 9.81161C8.86712 9.85321 9.00595 9.88798 9.14648 9.91593C9.28701 9.94389 9.42858 9.96489 9.57117 9.97893C9.71377 9.99298 9.85671 10 10 10ZM10 8.75C9.89765 8.75 9.79555 8.74498 9.6937 8.73495C9.59184 8.72492 9.49072 8.70992 9.39034 8.68995C9.28996 8.66998 9.1908 8.64515 9.09286 8.61544C8.99492 8.58573 8.89867 8.55129 8.80411 8.51212C8.70956 8.47296 8.61715 8.42925 8.52689 8.381C8.43662 8.33276 8.34894 8.2802 8.26384 8.22334C8.17874 8.16648 8.09664 8.10559 8.01752 8.04066C7.93841 7.97573 7.86266 7.90708 7.79029 7.83471C7.71792 7.76234 7.64927 7.68659 7.58434 7.60748C7.51941 7.52836 7.45852 7.44625 7.40166 7.36116C7.3448 7.27606 7.29224 7.18838 7.244 7.09811C7.19575 7.00785 7.15204 6.91544 7.11288 6.82088C7.07371 6.72633 7.03927 6.63008 7.00956 6.53214C6.97985 6.4342 6.95501 6.33504 6.93505 6.23466C6.91508 6.13428 6.90008 6.03316 6.89005 5.9313C6.88002 5.82945 6.875 5.72735 6.875 5.625C6.875 5.52265 6.88002 5.42055 6.89005 5.3187C6.90008 5.21684 6.91508 5.11572 6.93505 5.01534C6.95501 4.91496 6.97985 4.8158 7.00956 4.71786C7.03927 4.61992 7.07371 4.52367 7.11288 4.42911C7.15204 4.33456 7.19575 4.24215 7.244 4.15189C7.29224 4.06162 7.3448 3.97394 7.40166 3.88884C7.45852 3.80374 7.51941 3.72164 7.58434 3.64252C7.64927 3.5634 7.71792 3.48766 7.79029 3.41529C7.86266 3.34292 7.93841 3.27427 8.01752 3.20934C8.09664 3.14441 8.17874 3.08352 8.26384 3.02666C8.34894 2.9698 8.43662 2.91724 8.52689 2.869C8.61715 2.82075 8.70956 2.77704 8.80411 2.73788C8.89867 2.69871 8.99492 2.66427 9.09286 2.63456C9.1908 2.60485 9.28996 2.58001 9.39034 2.56005C9.49072 2.54008 9.59184 2.52508 9.6937 2.51505C9.79555 2.50502 9.89765 2.5 10 2.5C10.1023 2.5 10.2044 2.50502 10.3063 2.51505C10.4082 2.52508 10.5093 2.54008 10.6097 2.56005C10.71 2.58001 10.8092 2.60485 10.9071 2.63456C11.0051 2.66427 11.1013 2.69871 11.1959 2.73788C11.2904 2.77704 11.3829 2.82075 11.4731 2.869C11.5634 2.91724 11.6511 2.9698 11.7362 3.02666C11.8213 3.08352 11.9034 3.14441 11.9825 3.20934C12.0616 3.27427 12.1373 3.34292 12.2097 3.41529C12.2821 3.48766 12.3507 3.5634 12.4157 3.64252C12.4806 3.72164 12.5415 3.80374 12.5983 3.88884C12.6552 3.97394 12.7078 4.06162 12.756 4.15189C12.8042 4.24215 12.848 4.33456 12.8871 4.42911C12.9263 4.52367 12.9607 4.61992 12.9904 4.71786C13.0201 4.8158 13.045 4.91496 13.065 5.01534C13.0849 5.11572 13.0999 5.21684 13.11 5.3187C13.12 5.42055 13.125 5.52265 13.125 5.625C13.125 5.72735 13.12 5.82945 13.11 5.9313C13.0999 6.03316 13.0849 6.13428 13.065 6.23466C13.045 6.33504 13.0201 6.4342 12.9904 6.53214C12.9607 6.63008 12.9263 6.72633 12.8871 6.82088C12.848 6.91544 12.8042 7.00785 12.756 7.09811C12.7078 7.18838 12.6552 7.27606 12.5983 7.36116C12.5415 7.44625 12.4806 7.52836 12.4157 7.60748C12.3507 7.68659 12.2821 7.76234 12.2097 7.83471C12.1373 7.90708 12.0616 7.97573 11.9825 8.04066C11.9034 8.10559 11.8213 8.16648 11.7362 8.22334C11.6511 8.2802 11.5634 8.33276 11.4731 8.381C11.3829 8.42925 11.2904 8.47296 11.1959 8.51212C11.1013 8.55129 11.0051 8.58573 10.9071 8.61544C10.8092 8.64515 10.71 8.66999 10.6097 8.68995C10.5093 8.70992 10.4082 8.72492 10.3063 8.73495C10.2044 8.74498 10.1023 8.75 10 8.75Z" fill="rgb(68,68,68)" fill-rule="nonzero" />
			<path id="path" d="M8.75 6.25L11.25 6.25C11.25 6.33208 11.242 6.41336 11.226 6.49386C11.21 6.57436 11.1863 6.65253 11.1548 6.72835C11.1234 6.80418 11.0849 6.87622 11.0393 6.94446C10.9937 7.01271 10.9419 7.07585 10.8839 7.13388C10.8258 7.19192 10.7627 7.24374 10.6945 7.28934C10.6262 7.33494 10.5542 7.37344 10.4784 7.40485C10.4025 7.43626 10.3244 7.45997 10.2439 7.47598C10.1634 7.49199 10.0821 7.5 10 7.5C9.91792 7.5 9.83664 7.49199 9.75614 7.47598C9.67564 7.45997 9.59747 7.43626 9.52165 7.40485C9.44582 7.37344 9.37378 7.33494 9.30554 7.28934C9.23729 7.24374 9.17415 7.19192 9.11612 7.13388C9.05808 7.07585 9.00626 7.01271 8.96066 6.94446C8.91506 6.87622 8.87656 6.80418 8.84515 6.72835C8.81374 6.65253 8.79003 6.57436 8.77402 6.49386C8.75801 6.41336 8.75 6.33208 8.75 6.25Z" fill="rgb(0,124,255)" fill-rule="nonzero" />
			<path id="path" d="M5.9375 11.25L14.0625 11.25C16.3062 11.25 18.125 12.9288 18.125 15C18.125 17.0712 16.3062 18.75 14.0625 18.75L5.9375 18.75C3.69375 18.75 1.875 17.0712 1.875 15C1.875 12.9288 3.69375 11.25 5.9375 11.25ZM5.875 12.5C4.35625 12.5 3.125 13.6188 3.125 15C3.125 16.3812 4.35625 17.5 5.875 17.5L14.125 17.5C15.6437 17.5 16.875 16.3812 16.875 15C16.875 13.6188 15.6437 12.5 14.125 12.5L5.875 12.5Z" fill="rgb(68,68,68)" fill-rule="nonzero" />
		</g>
	</g>
</svg>
